<svg width="111" height="225" viewBox="0 0 111 225" fill="none" xmlns="http://www.w3.org/2000/svg">
<g opacity="0.8" clip-path="url(#clip0_2234_9590)">
<path d="M9.48431 58.711C10.6516 59.608 10.852 61.1592 9.95203 62.3303C9.05201 63.5015 7.50153 63.7071 6.33425 62.81C5.16696 61.913 4.96652 60.3619 5.86654 59.1907C6.76655 58.0195 8.4143 57.8887 9.48431 58.711Z" fill="#FFCF2D"/>
<path d="M22.9096 41.2413C24.0769 42.1383 24.2773 43.6894 23.3773 44.8606C22.4773 46.0318 20.9268 46.2374 19.7595 45.3403C18.5923 44.4433 18.3918 42.8921 19.2918 41.721C20.1918 40.5498 21.8396 40.419 22.9096 41.2413Z" fill="#FFCF2D"/>
<path d="M36.3349 23.7715C37.5022 24.6686 37.7026 26.2197 36.8026 27.3909C35.9026 28.562 34.3521 28.7676 33.1848 27.8706C32.0176 26.9736 31.8171 25.4224 32.7171 24.2513C33.5421 23.1777 35.2649 22.9493 36.3349 23.7715Z" fill="#FFCF2D"/>
<path d="M10.6279 87.2208C11.7951 88.1178 11.9956 89.6689 11.0956 90.8401C10.1956 92.0113 8.64509 92.2169 7.47781 91.3198C6.31052 90.4228 6.11007 88.8716 7.01009 87.7005C7.9101 86.5293 9.46058 86.3237 10.6279 87.2208Z" fill="#FFCF2D"/>
<path d="M23.978 69.8487C25.1452 70.7457 25.3457 72.2969 24.4457 73.468C23.5457 74.6392 21.9952 74.8448 20.8279 73.9477C19.6606 73.0507 19.4602 71.4996 20.3602 70.3284C21.2602 69.1572 22.8107 68.9517 23.978 69.8487Z" fill="#FFCF2D"/>
<path d="M37.4033 52.3789C38.5705 53.276 38.771 54.8271 37.871 55.9983C36.971 57.1695 35.4205 57.3751 34.2532 56.478C33.0859 55.581 32.8855 54.0298 33.7855 52.8587C34.6855 51.6875 36.236 51.4819 37.4033 52.3789Z" fill="#FFCF2D"/>
<path d="M50.8285 34.9092C51.9958 35.8063 52.1963 37.3574 51.2963 38.5286C50.3962 39.6997 48.8458 39.9053 47.6785 39.0083C46.5112 38.1113 46.3108 36.5601 47.2108 35.3889C48.0358 34.3154 49.6613 34.0122 50.8285 34.9092Z" fill="#FFCF2D"/>
<path d="M7.44474 1.5694C8.61202 2.46644 8.81248 4.01757 7.91247 5.18873C7.01246 6.35988 5.46198 6.56548 4.2947 5.66845C3.12742 4.77141 2.92697 3.22026 3.82698 2.0491C4.65199 0.975542 6.27746 0.672364 7.44474 1.5694Z" fill="#FFCF2D"/>
<path d="M8.51312 30.1778C9.6804 31.0748 9.88085 32.626 8.98083 33.7971C8.08081 34.9683 6.53034 35.1739 5.36306 34.2768C4.19577 33.3798 3.99532 31.8287 4.89534 30.6575C5.79536 29.4863 7.34584 29.2807 8.51312 30.1778Z" fill="#FFCF2D"/>
<path d="M21.9384 12.7081C23.1057 13.6051 23.3061 15.1562 22.4061 16.3274C21.5061 17.4986 19.9556 17.7042 18.7884 16.8071C17.6211 15.9101 17.4206 14.3589 18.3206 13.1878C19.1457 12.1142 20.7711 11.811 21.9384 12.7081Z" fill="#FFCF2D"/>
<path d="M-1.82575 133.225C-0.658471 134.122 -0.458023 135.673 -1.35804 136.844C-2.25806 138.015 -3.80853 138.221 -4.97581 137.324C-6.1431 136.427 -6.34354 134.876 -5.44352 133.704C-4.54351 132.533 -2.89576 132.402 -1.82575 133.225Z" fill="#FFCF2D"/>
<path d="M11.5995 115.755C12.7668 116.652 12.9673 118.203 12.0673 119.374C11.1672 120.545 9.61677 120.751 8.44948 119.854C7.2822 118.957 7.08175 117.406 7.98177 116.235C8.80678 115.161 10.5295 114.933 11.5995 115.755Z" fill="#FFCF2D"/>
<path d="M25.0248 98.2842C26.1921 99.1813 26.3926 100.732 25.4925 101.904C24.5925 103.075 23.0421 103.28 21.8748 102.383C20.7075 101.486 20.507 99.9351 21.4071 98.7639C22.3071 97.5928 23.9548 97.4619 25.0248 98.2842Z" fill="#FFCF2D"/>
<path d="M38.3749 80.9121C39.5422 81.8092 39.7427 83.3603 38.8427 84.5315C37.9426 85.7027 36.3922 85.9083 35.2249 85.0112C34.0576 84.1142 33.8571 82.563 34.7572 81.3919C35.6572 80.2207 37.3049 80.0899 38.3749 80.9121Z" fill="#FFCF2D"/>
<path d="M51.8002 63.4424C52.9675 64.3395 53.168 65.8906 52.2679 67.0618C51.3679 68.2329 49.8174 68.4385 48.6502 67.5415C47.4829 66.6445 47.2824 65.0933 48.1824 63.9221C49.0825 62.751 50.7302 62.6201 51.8002 63.4424Z" fill="#FFCF2D"/>
<path d="M65.2255 45.9727C66.3928 46.8697 66.5932 48.4209 65.6932 49.592C64.7932 50.7632 63.2427 50.9688 62.0755 50.0718C60.9082 49.1747 60.7077 47.6236 61.6077 46.4524C62.4328 45.3789 64.1555 45.1504 65.2255 45.9727Z" fill="#FFCF2D"/>
<path d="M-0.757398 161.832C0.409884 162.729 0.61033 164.28 -0.289686 165.451C-1.1897 166.623 -2.74017 166.828 -3.90745 165.931C-5.07474 165.034 -5.27518 163.483 -4.37517 162.312C-3.47515 161.141 -1.92468 160.935 -0.757398 161.832Z" fill="#FFCF2D"/>
<path d="M13.1356 147.982C14.0055 146.85 13.7961 145.229 12.6679 144.362C11.5397 143.495 9.91999 143.71 9.05013 144.842C8.18026 145.974 8.38966 147.594 9.51784 148.461C10.646 149.328 12.2657 149.114 13.1356 147.982Z" fill="#FFCF2D"/>
<path d="M26.0932 126.893C27.2605 127.79 27.4609 129.341 26.5609 130.512C25.6609 131.683 24.1104 131.889 22.9431 130.992C21.7758 130.095 21.5754 128.544 22.4754 127.372C23.3004 126.299 24.9259 125.996 26.0932 126.893Z" fill="#FFCF2D"/>
<path d="M39.5185 109.423C40.6858 110.32 40.8862 111.871 39.9862 113.042C39.0862 114.213 37.5357 114.419 36.3684 113.522C35.2011 112.625 35.0007 111.074 35.9007 109.903C36.8007 108.731 38.3512 108.526 39.5185 109.423Z" fill="#FFCF2D"/>
<path d="M52.8686 92.0508C54.0359 92.9479 54.2363 94.499 53.3363 95.6702C52.4363 96.8413 50.8858 97.0469 49.7185 96.1499C48.5512 95.2529 48.3508 93.7017 49.2508 92.5305C50.1508 91.3594 51.7013 91.1538 52.8686 92.0508Z" fill="#FFCF2D"/>
<path d="M66.7616 78.2004C67.6314 77.0685 67.4221 75.4481 66.2939 74.5811C65.1657 73.7141 63.546 73.9289 62.6761 75.0608C61.8062 76.1927 62.0156 77.8132 63.1438 78.6802C64.272 79.5471 65.8917 79.3324 66.7616 78.2004Z" fill="#FFCF2D"/>
<path d="M79.7192 57.1114C80.8864 58.0084 81.0869 59.5595 80.1869 60.7307C79.2869 61.9019 77.7364 62.1075 76.5691 61.2104C75.4018 60.3134 75.2014 58.7622 76.1014 57.5911C76.9264 56.5175 78.5519 56.2143 79.7192 57.1114Z" fill="#FFCF2D"/>
<path d="M0.386169 190.343C1.55345 191.24 1.7539 192.791 0.853888 193.962C-0.0461279 195.133 -1.5966 195.339 -2.76389 194.442C-3.93117 193.545 -4.13163 191.994 -3.23161 190.823C-2.4066 189.749 -0.781115 189.446 0.386169 190.343Z" fill="#FFCF2D"/>
<path d="M13.7363 172.971C14.9035 173.868 15.104 175.419 14.204 176.59C13.304 177.761 11.7535 177.967 10.5862 177.07C9.41893 176.173 9.21847 174.622 10.1185 173.45C11.0185 172.279 12.569 172.074 13.7363 172.971Z" fill="#FFCF2D"/>
<path d="M27.1616 155.501C28.3288 156.398 28.5293 157.949 27.6293 159.12C26.7293 160.292 25.1788 160.497 24.0115 159.6C22.8442 158.703 22.6438 157.152 23.5438 155.981C24.4438 154.81 25.9943 154.604 27.1616 155.501Z" fill="#FFCF2D"/>
<path d="M40.5868 138.031C41.7541 138.928 41.9546 140.479 41.0546 141.651C40.1545 142.822 38.6041 143.027 37.4368 142.13C36.2695 141.233 36.0691 139.682 36.9691 138.511C37.7941 137.437 39.4196 137.134 40.5868 138.031Z" fill="#FFCF2D"/>
<path d="M54.0121 120.561C55.1794 121.458 55.3799 123.009 54.4799 124.18C53.5798 125.351 52.0294 125.557 50.8621 124.66C49.6948 123.763 49.4943 122.211 50.3944 121.04C51.2944 119.869 52.8449 119.664 54.0121 120.561Z" fill="#FFCF2D"/>
<path d="M67.3622 103.189C68.5295 104.086 68.73 105.637 67.83 106.808C66.9299 107.979 65.3795 108.185 64.2122 107.288C63.0449 106.391 62.8444 104.839 63.7445 103.668C64.6445 102.497 66.195 102.291 67.3622 103.189Z" fill="#FFCF2D"/>
<path d="M80.7875 85.7188C81.9548 86.6158 82.1553 88.167 81.2552 89.3381C80.3552 90.5093 78.8048 90.7149 77.6375 89.8179C76.4702 88.9208 76.2697 87.3697 77.1698 86.1985C78.0698 85.0274 79.6203 84.8218 80.7875 85.7188Z" fill="#FFCF2D"/>
<path d="M94.2128 68.2491C95.3801 69.1461 95.5806 70.6973 94.6806 71.8684C93.7805 73.0396 92.2301 73.2452 91.0628 72.3481C89.8955 71.4511 89.695 69.8999 90.5951 68.7288C91.4201 67.6552 93.0455 67.352 94.2128 68.2491Z" fill="#FFCF2D"/>
<path d="M1.35736 218.876C2.52464 219.773 2.7251 221.324 1.82508 222.495C0.925063 223.667 -0.625412 223.872 -1.7927 222.975C-2.95999 222.078 -3.16044 220.527 -2.26042 219.356C-1.3604 218.185 0.287344 218.054 1.35736 218.876Z" fill="#FFCF2D"/>
<path d="M14.7826 201.406C15.9499 202.303 16.1504 203.854 15.2504 205.026C14.3504 206.197 12.7999 206.402 11.6326 205.505C10.4653 204.608 10.2649 203.057 11.1649 201.886C11.9899 200.812 13.7126 200.584 14.7826 201.406Z" fill="#FFCF2D"/>
<path d="M28.1327 184.034C29.3 184.931 29.5005 186.482 28.6005 187.654C27.7004 188.825 26.15 189.03 24.9827 188.133C23.8154 187.236 23.615 185.685 24.515 184.514C25.415 183.343 27.0627 183.212 28.1327 184.034Z" fill="#FFCF2D"/>
<path d="M41.558 166.564C42.7253 167.462 42.9258 169.013 42.0257 170.184C41.1257 171.355 39.5753 171.561 38.408 170.664C37.2407 169.767 37.0402 168.215 37.9403 167.044C38.8403 165.873 40.488 165.742 41.558 166.564Z" fill="#FFCF2D"/>
<path d="M54.9833 149.094C56.1506 149.991 56.3511 151.542 55.451 152.713C54.551 153.884 53.0006 154.09 51.8333 153.193C50.666 152.296 50.4655 150.745 51.3656 149.574C52.1906 148.5 53.9133 148.272 54.9833 149.094Z" fill="#FFCF2D"/>
<path d="M68.4086 131.624C69.5759 132.521 69.7763 134.072 68.8763 135.243C67.9763 136.415 66.4258 136.62 65.2586 135.723C64.0913 134.826 63.8908 133.275 64.7908 132.104C65.6909 130.933 67.3386 130.802 68.4086 131.624Z" fill="#FFCF2D"/>
<path d="M81.7587 114.252C82.926 115.149 83.1264 116.7 82.2264 117.871C81.3264 119.042 79.7759 119.248 78.6087 118.351C77.4414 117.454 77.2409 115.903 78.141 114.732C79.041 113.561 80.6887 113.43 81.7587 114.252Z" fill="#FFCF2D"/>
<path d="M95.184 96.7823C96.3513 97.6793 96.5518 99.2305 95.6517 100.402C94.7517 101.573 93.2012 101.778 92.034 100.881C90.8667 99.9843 90.6662 98.4332 91.5662 97.262C92.4663 96.0908 94.114 95.96 95.184 96.7823Z" fill="#FFCF2D"/>
<path d="M108.609 79.3126C109.777 80.2096 109.977 81.7607 109.077 82.9319C108.177 84.103 106.627 84.3086 105.459 83.4116C104.292 82.5146 104.092 80.9634 104.992 79.7923C105.817 78.7187 107.539 78.4903 108.609 79.3126Z" fill="#FFCF2D"/>
</g>
<defs>
<clipPath id="clip0_2234_9590">
<rect width="181.184" height="132.739" fill="white" transform="translate(-105 143.662) rotate(-52.4584)"/>
</clipPath>
</defs>
</svg>
